<?xml version="1.0" encoding="utf-8"?>
<!-- Generator: Adobe Illustrator 17.1.0, SVG Export Plug-In . SVG Version: 6.00 Build 0)  -->
<!DOCTYPE svg PUBLIC "-//W3C//DTD SVG 1.1//EN" "http://www.w3.org/Graphics/SVG/1.1/DTD/svg11.dtd">
<svg version="1.1" id="Layer_1" xmlns="http://www.w3.org/2000/svg" xmlns:xlink="http://www.w3.org/1999/xlink" x="0px" y="0px"
	 width="820px" height="123px" viewBox="-310 0 820 123" enable-background="new -310 0 820 123" xml:space="preserve">
<g>
	<g>
		<path d="M440.5,8.4c0,0.8,0.4,1.2,0.4,1.6c0,34.8,0,69.2,0,104c0,0.4,0,1.2,0,1.6c-2,0-3.6,0-5.6,0c0-0.8,0-1.6,0-2
			c0-34.4,0-69.2,0-103.6c0-0.4,0-1.2-0.4-2C436.5,8.4,438.5,8.4,440.5,8.4z"/>
		<path d="M359.3,8.4c0,5.2,0,10.4,0,15.2c-1.6,0-3.6,0-5.6,0c0-0.4,0-1.2,0-1.6c0-4,0-8,0-12c0-0.8,0-1.2-0.4-1.6
			C355.7,8.4,357.3,8.4,359.3,8.4z"/>
		<path d="M424.9,111.2c0,1.6,0,2.8,0,4c0,0.4-0.4,0.8-0.8,0.8c-4.4,1.6-8.8,1.6-11.2-3.6c-0.8-1.6-0.8-3.6-0.8-5.6
			c-0.4-1.2,0-2.4-0.4-3.6c-0.4,0.4-0.4,0.8-0.4,0.8c-2.8,6.8-7.2,11.2-14.4,12.8c-6.8,1.6-13.2,1.2-19.2-3.6
			c-3.2-2.8-5.2-6.4-6-10.4c-1.2-5.6-1.2-11.2,0.8-16.4c1.6-6,6.4-9.6,11.6-11.2c6.4-2,12.8-3.6,19.2-5.6h0.4c6-1.6,8-4.4,8-10.4
			c0-3.2-0.4-6-1.2-9.2c-1.2-5.2-4.4-8-9.6-9.2c-3.6-0.8-7.6-0.8-11.2,0.4c-6.4,1.6-9.2,6.4-10,12.4c-0.4,2-0.4,3.6-0.8,5.6
			c-1.6,0-3.6,0-5.2,0c-0.8-10,3.6-21.2,15.6-23.6c5.6-1.2,11.2-1.2,17.2,1.2c6.8,2.4,9.6,7.6,10.8,14.4c0.4,2.4,0.4,4.4,0.4,6.4
			c0,16,0,32,0,48c0,0.8,0,1.2,0,2c0.4,3.6,2.4,4.8,5.6,4C424.1,111.6,424.1,111.2,424.9,111.2z M412.1,70.4
			C411.7,70.4,411.7,70,412.1,70.4c-2,2.8-5.2,3.6-8,4.4c-5.6,1.6-11.2,3.2-16.8,4.8c-4.4,1.6-7.6,4.4-8.8,9.2
			c-1.2,4-1.2,8-0.8,12.4c0.8,3.2,1.6,5.6,3.6,8c2.4,2.8,5.2,3.6,8.8,4c7.2,0.8,13.2-1.6,17.2-7.6c3.2-5.2,4.4-10.8,4.4-16.4
			c0.4-5.6,0-11.6,0-17.6C412.1,70.8,412.1,70.8,412.1,70.4z"/>
		<path d="M81.3,76.4c-15.2,0-30,0-44.8,0c0,0.4-0.4,0.4-0.4,0.8c0,7.2,0.4,14.4,2.4,21.6c0.8,3.2,2.4,6.4,4.4,9.2
			c4.4,5.2,10,6,16.4,4.8c7.2-1.2,11.2-6,13.2-12.4c1.2-3.2,1.6-6.4,2-9.2c1.6,0,3.6,0,5.2,0c0.4,4-0.4,7.6-1.6,11.2
			c-2.4,6.4-6.4,11.6-12.8,14.4c-8.4,3.2-16.4,2.8-24-2.4c-4-2.8-6-6.8-7.6-10.8c-2.4-6-3.2-12.4-3.2-18.8c0-5.6-0.4-11.2,0-17.2
			c0.8-8,2.4-16,7.6-23.2c4-5.2,9.6-8,16.4-8.4c4-0.4,8,0,12,1.6c5.2,2.4,8.8,6.8,11.2,12.4c2.4,5.6,3.2,12,3.6,18.4
			C80.9,70.4,80.9,73.2,81.3,76.4z M74.9,71.2C74.5,64.4,74.5,58,72.1,52c-2.8-7.2-7.6-11.2-15.6-11.2c-5.2,0-9.6,1.6-13.2,5.6
			c-6,7.2-6.8,16-7.2,24.8C49.3,71.2,61.7,71.2,74.9,71.2z"/>
		<path d="M248.5,76.4c-15.2,0-29.6,0-44.4,0c0,0.4,0,0.4,0,0.8c0,7.2,0,14.4,2,21.2c1.2,3.6,2.4,6.8,4.8,9.2c4.4,5.2,9.6,6,16,4.8
			c7.2-1.2,11.2-6,13.2-12.4c1.2-3.2,1.6-6.4,2.4-9.6c1.6,0,3.2,0,5.6,0c-0.4,2.8-0.8,5.6-1.2,8.4c-1.6,6.8-5.2,12.4-11.2,16
			c-5.2,3.2-11.2,3.6-17.2,2.8c-8.8-1.6-14-6.8-16.8-14.8c-2.4-6-3.2-12-3.2-18c0-4.4-0.4-8.8,0-12.8c0-7.6,1.2-15.2,4.4-22
			c4.4-9.2,12.8-14.4,22.8-14c5.6,0.4,10.4,2,14.4,5.6c3.2,3.2,5.2,7.2,6.4,11.2C248.1,60,248.5,68,248.5,76.4z M242.1,71.2
			c-0.4-7.6-0.4-14.8-3.6-21.2c-4-8.4-10.8-10-18.4-9.2c-5.6,0.8-9.6,4.4-12.4,9.2c-2.4,4.8-3.2,9.6-3.6,14.8
			c-0.4,2.4-0.4,4.4-0.4,6.4C216.5,71.2,229.3,71.2,242.1,71.2z"/>
		<path d="M133.3,59.2c-2.4,0-3.6,0-5.6,0c0-1.6,0-3.2-0.4-4.4c-0.4-2.4-0.8-4.4-1.6-6.4c-1.6-4.4-5.2-7.2-10.4-7.6
			c-3.6-0.4-7.2-0.4-10.4,1.2c-4.4,2-6.8,5.2-7.6,10c-0.4,3.2-0.4,6.4,0.8,9.2c1.6,4.4,5.2,7.2,9.2,8.8c4.4,1.6,9.2,3.2,13.2,5.2
			c4,1.6,7.6,3.6,10.4,7.2c2.4,3.2,3.6,6.4,4,10c0.8,4.8,0.4,9.6-1.6,13.6c-3.6,6.8-9.2,10.4-16.8,11.6c-4,0.8-8.4,0.4-12.4-0.8
			c-7.6-2-12.4-7.2-14-15.2c-0.4-3.6-0.8-7.2-1.2-10.8c2.4,0,4,0,5.6,0c0,1.6,0.4,3.6,0.4,5.2c0.4,4.4,1.6,8.4,4.4,11.6
			c4,4.4,9.2,5.2,14.8,4.8c3.6-0.4,6.4-1.2,9.2-3.2c3.2-2.4,4.8-5.6,5.2-9.6c0.4-4.4,0.4-8.8-2-12.4c-1.6-2.8-4-4.8-7.2-6
			c-5.6-2.4-11.2-4.4-16.4-7.2c-3.6-1.6-6.8-3.6-9.2-7.2c-2.4-4-3.2-8.4-3.2-12.8c0.4-6.4,3.2-12,8.8-15.6c4-2.4,8.4-3.2,13.2-3.2
			c4.4,0,8.4,0.8,12,3.2c4.8,3.2,6.8,7.6,7.6,12.4C132.9,53.6,132.9,56.4,133.3,59.2z"/>
		<path d="M142.1,91.2c2.4,0,4,0,6.4,0c0,1.6-0.4,3.6,0,5.2c0.4,4.4,1.2,8.4,4,11.6c4,4.4,9.2,5.2,14.8,4.8c3.2-0.4,6.4-1.2,9.2-3.2
			c3.2-2.4,4.8-5.6,5.2-9.6c0.8-4.4,0.4-8.8-1.6-12.4c-1.6-2.8-4.4-4.8-7.2-6c-5.6-2.4-11.2-4.4-16.4-7.2c-3.6-1.6-6.8-3.6-9.2-7.2
			c-2.8-4-3.6-8.4-3.2-12.8c0.4-6.4,3.2-12,8.8-15.6c4-2.4,8.4-3.2,13.2-3.2c4.4,0,8.4,0.4,12,3.2c4.4,3.2,6.8,7.2,7.6,12.4
			c0.4,2.8,0.4,5.6,0.8,8.4c-2,0-3.6,0-5.6,0c0-1.6,0-3.2-0.4-4.4c-0.4-2.4-0.8-4.4-1.6-6.4c-1.6-4.4-5.2-7.2-10-7.6
			c-3.6-0.4-7.2-0.4-10.4,1.2c-4.4,2-6.8,5.2-7.6,9.6c-0.8,3.2-0.8,6.4,0.4,9.6c1.6,4.4,5.2,6.8,9.2,8.4c4.4,2,9.2,3.6,13.6,5.2
			c4,1.6,7.6,3.6,10.4,7.2c2.4,3.2,3.6,6.4,4,9.6c0.8,4.8,0.4,9.6-1.6,13.6c-3.6,6.8-9.2,10.4-16.8,11.6c-4,0.8-8.4,0.4-12.4-0.8
			c-7.6-2-12.4-7.2-14-15.2C142.5,98.4,142.5,94.8,142.1,91.2z"/>
		<path d="M496.1,59.2c-2.4,0-4,0-5.6,0c-0.4-2.4-0.4-4.4-0.8-6.8c-1.2-8-6.4-12.4-14.8-11.6c-2.8,0.4-5.2,0.8-7.2,1.6
			c-3.2,1.2-5.2,3.6-6.4,6.8c-1.2,4-1.2,7.6-0.4,11.6c1.2,4.8,4.8,7.2,9.2,9.2c4.4,1.6,9.2,3.2,13.2,5.2c4,1.6,7.6,3.6,10.8,7.2
			c2.4,3.2,3.6,6.4,4,9.6c0.8,4.8,0.4,9.6-2,14c-3.2,6.8-9.2,10.4-16.8,11.6c-4.4,0.8-9.2,0.4-13.2-0.8c-6.8-2-10.8-6.4-12.8-12.8
			c-1.2-4.4-1.2-8.4-1.2-12.8c2,0,3.6,0,5.6,0c0,2,0.4,3.6,0.4,5.2c0.4,3.2,1.2,6.4,2.8,9.2c2.4,4.4,6,6.4,10.8,7.2
			c3.2,0.4,6.8,0.4,10.4-0.8c5.2-1.6,8.8-5.2,9.6-10.4c1.2-4.8,1.2-9.6-1.2-14c-1.6-2.8-4.4-4.8-7.2-6c-5.2-2.4-11.2-4.8-16.4-7.2
			c-3.6-1.6-6.8-3.6-9.2-7.2c-2.8-4-3.2-8.4-3.2-13.2c0.4-6.4,3.2-12,9.2-15.6c4-2.4,8.4-3.2,13.2-3.2c4.4,0,8.4,0.8,12,3.2
			c4.8,2.8,6.8,7.2,7.2,12.4C496.1,53.6,496.1,56.4,496.1,59.2z"/>
		<path d="M260.9,37.2c1.6,0,3.6,0,5.6,0c0,4,0,8,0,11.6h0.4c0.8-1.6,1.2-2.8,2.4-4c6.8-11.2,22.4-12,30.4-6c4.4,3.2,6.4,8,7.2,13.2
			c0.4,2.4,0.4,4.8,0.4,6.8c0,18.4,0,36.8,0,55.2c0,0.4,0,1.2,0,1.6c-2,0-3.6,0-5.6,0c0-0.8,0-1.2,0-1.6c0-18.4,0-36.4,0-54.8
			c0-2.8-0.4-5.6-0.8-8.4c-1.2-6-4.8-9.6-11.2-10.4c-6.8-1.2-12.8,0.4-17.2,6.4c-2.8,3.6-4.4,7.6-5.2,12c-0.4,2.4-0.4,4.8-0.4,7.2
			c0,15.6,0,31.6,0,47.6c0,0.4,0,1.2,0,1.6c-1.6,0-3.6,0-5.6,0C260.9,90,260.9,63.6,260.9,37.2z"/>
		<path d="M346.5,111.2c0,1.6,0,3.2,0,4.8c-4.4,0.8-8.8,1.6-13.2,0c-3.6-1.2-5.6-4-6.4-7.6c-0.4-2.4-0.4-4.4-0.4-6.4
			c0-19.2,0-38,0-57.2c0-0.8,0-1.6,0-2.4c-3.6,0-7.2,0-10.4,0c0-1.6,0-3.6,0-5.2c3.2,0,7.2,0,10.4,0c0-7.6,0-15.6,0-23.2
			c2,0,3.6,0,5.6,0c0,7.6,0,15.2,0,23.2c4.4,0,8.8,0,13.2,0c0,2,0,3.6,0,5.2c-4.4,0-8.4,0-13.2,0c0,0.8,0,1.6,0,2
			c0,19.2,0,38.4,0,57.2c0,1.6,0.4,3.6,0.4,5.2c0.4,3.2,2.8,5.2,6,5.2C341.3,112,343.7,111.6,346.5,111.2z"/>
		<path d="M353.7,37.2c1.6,0,3.6,0,5.6,0c0,26.4,0,52.4,0,78.8c-1.6,0-3.6,0-5.6,0C353.7,90,353.7,63.6,353.7,37.2z"/>
	</g>
	<g>
		<path d="M-301.5,8.4c6.8,0,14,0,20.8,0c0,11.6,0,23.2,0,34.8l0,0c0.8-1.2,1.6-2,2.4-3.2c4-4.8,9.6-6.8,15.6-7.2
			c4-0.4,7.6,0.4,11.2,1.6c6.4,2.8,9.6,8,10.8,14.4c0.4,2.4,0.4,5.2,0.4,7.6c0,19.2,0,38.4,0,57.6c0,0.4,0,1.2,0,1.6
			c-7.2,0-14,0-20.8,0c0-0.8,0-1.2,0-1.6c0-17.6,0-35.6,0-53.6c0-2,0-4-0.4-5.6c-1.2-4-3.2-6-7.2-6c-6.8-0.4-11.2,3.2-12,9.6
			c0,1.6,0,3.2,0,4.4c0,17.2,0,34,0,50.8c0,0.4,0,1.2,0,2c-7.2,0-14,0-20.8,0C-301.5,80-301.5,44-301.5,8.4z"/>
		<path d="M-201.9,118c-2-0.4-4-0.8-6-1.2c-9.2-2-14.4-7.6-17.6-16.4c-2.4-6.8-3.2-13.6-3.2-21.2c-0.4-7.6,0-14.8,1.2-22.4
			c1.6-6.8,4-13.2,9.2-18c3.6-3.6,8.4-5.2,13.6-6.4s11.2-1.2,16.4,0c10,1.6,16.8,7.2,20,16.8c2.4,6.8,3.2,13.6,3.2,21.2
			c0,7.6,0,14.8-1.6,22c-1.6,6.8-4,13.2-9.2,18.4c-4,3.6-8.8,5.2-14,6.4c-1.2,0-2.4,0.4-4,0.4C-196.3,118-199.1,118-201.9,118z
			 M-208.7,75.2c0.4,0,0.4,0,0.8,0c0,4-0.4,8,0,12c0,4,0.8,8,2.4,11.6c2,3.6,4.8,5.2,8.4,5.2c4-0.4,6.4-2,8-5.2
			c2-4,2.4-8.4,2.4-12.8c0.4-6.8,0.4-13.6,0-20.4c0-4.4-0.8-8.8-2.4-13.2c-2.4-5.6-9.6-7.2-14-3.2c-2.4,2.4-3.6,5.2-4,8
			C-207.5,63.2-207.9,69.2-208.7,75.2z"/>
		<path d="M-14.3,118c-1.6-0.4-3.6-0.8-5.6-0.8c-6.8-1.2-12-4-16-9.6c-2.8-3.6-4.4-8-5.2-12.8c-1.6-8.4-1.6-17.2-1.6-26
			c0.4-5.6,0.8-10.8,2.4-16c2.4-8.4,7.6-15.2,16.4-18.4c5.6-2,11.2-2.4,17.2-2c4,0.4,8,1.2,11.6,3.2c6,3.2,9.6,8,11.6,14.4
			c3.2,9.2,2.8,18.8,2.8,28.4c-13.6,0-27.2,0-40.8,0c-0.4,0.4-0.4,0.4-0.4,0.4c0,6.4-0.4,12.4,2,18.8c2,5.2,6.8,7.6,12,5.6
			c2.8-1.2,4.4-3.2,5.2-6c0.8-2.4,1.2-5.2,2.4-8.4c6,0,12,0,18.4,0c-0.4,3.2-0.8,6.4-1.6,9.6c-1.6,6.4-4.8,11.6-10,15.2
			c-4,2.8-8.4,3.6-12.8,4.4c-0.4,0-1.2,0.4-1.2,0.4C-9.9,118-11.9,118-14.3,118z M-0.7,66c0-4.8-0.4-9.2-1.6-13.6
			c-1.2-3.6-4-5.6-7.6-5.6c-3.6-0.4-6.4,0.8-8.4,3.6c-3.2,4.4-3.2,10-3.2,15.2C-14.7,66-7.9,66-0.7,66z"/>
		<path d="M-53.5,116c-7.2,0-13.6,0-20.8,0c0-0.8,0-1.2,0-1.6c0-18.4,0-36.4,0-54.4c0-2-0.4-4-0.8-6c-0.8-3.2-2.8-4.4-5.6-4.8
			c-5.6-0.8-10.8,2.8-11.6,8.4c-0.4,2.4-0.4,4.4-0.4,6.8c0,16.8,0,33.2,0,50.4c0,0.4,0,1.2,0,1.6c-7.2,0-13.6,0-20.8,0
			c0-0.8,0-1.2,0-1.6c0-18,0-36.4,0-54.4c0-2.4-0.4-4.4-1.2-6.4c-0.8-2.4-2.4-3.6-4.8-4.4c-6-1.6-11.6,2-12.4,8
			c-0.4,2.4-0.8,4.4-0.8,6.8c0,16.8,0,33.2,0,50.4c0,0.4,0,1.2,0,2c-6.8,0-13.6,0-20.4,0c0-27.2,0-54,0-80.8c6.4,0,13.2,0,20,0
			c0,2.8,0,5.6,0,8.8c0.8-0.8,1.2-1.6,1.6-2c5.6-7.2,13.2-9.2,21.6-8.4c5.2,0.4,9.6,2.4,12.8,6.4c1.2,1.2,2,3.2,2.8,4.4
			c0,0.4,0.4,1.2,0.8,2c0.8-1.6,1.2-2.4,2-3.6c3.6-6.4,9.6-8.8,16.8-9.2c4.4-0.4,9.2,0.4,13.2,2.8c4.4,2.8,7.2,7.2,8,12.4
			c0.4,2.8,1.2,5.6,1.2,8.4c0,19.6,0,38.8,0,58C-53.5,114.8-53.5,115.2-53.5,116z"/>
	</g>
</g>
</svg>
